<svg xmlns="http://www.w3.org/2000/svg" width="256" height="256" viewBox="0 0 256 256" fill="none"><defs><linearGradient id="gBlue" x1="0" y1="0" x2="1" y2="1"><stop offset="0%" stop-color="#31C2FF"/><stop offset="100%" stop-color="#0A63D9"/></linearGradient><linearGradient id="gGold" x1="0" y1="0" x2="1" y2="1"><stop offset="0%" stop-color="#FFD54A"/><stop offset="100%" stop-color="#FFB400"/></linearGradient><linearGradient id="gOrange" x1="0" y1="0" x2="1" y2="1"><stop offset="0%" stop-color="#FF8A3D"/><stop offset="100%" stop-color="#F25A19"/></linearGradient></defs><polygon points="40,56 104,20 168,56 104,92" fill="url(#gBlue)"/><polygon points="40,56 40,148 104,184 104,92" fill="#1684F0"/><polygon points="104,92 104,184 168,148 168,56" fill="url(#gGold)"/><polygon points="40,148 40,220 104,236 104,184" fill="#0C58C6"/><polygon points="104,184 104,236 168,220 168,148" fill="url(#gOrange)"/><polygon points="104,104 136,122 136,158 104,176 72,158 72,122" fill="#ffffff" opacity="0.98"/><polygon points="104,118 126,130 126,150 104,162 82,150 82,130" fill="url(#gBlue)"/></svg>