<svg xmlns="http://www.w3.org/2000/svg" width="1200" height="300" viewBox="0 0 1200 300" fill="none"><defs><linearGradient id="gBlue" x1="0" y1="0" x2="1" y2="1"><stop offset="0%" stop-color="#31C2FF"/><stop offset="100%" stop-color="#0A63D9"/></linearGradient><linearGradient id="gGold" x1="0" y1="0" x2="1" y2="1"><stop offset="0%" stop-color="#FFD54A"/><stop offset="100%" stop-color="#FFB400"/></linearGradient><linearGradient id="gOrange" x1="0" y1="0" x2="1" y2="1"><stop offset="0%" stop-color="#FF8A3D"/><stop offset="100%" stop-color="#F25A19"/></linearGradient><filter id="shadow" x="-20%" y="-20%" width="140%" height="140%"><feDropShadow dx="0" dy="8" stdDeviation="10" flood-opacity="0.12"/></filter></defs><g filter="url(#shadow)"><polygon points="80,50 150,10 220,50 150,90" fill="url(#gBlue)"/><polygon points="80,50 80,150 150,190 150,90" fill="#1684F0"/><polygon points="150,90 150,190 220,150 220,50" fill="url(#gGold)"/><polygon points="80,150 80,250 150,290 150,190" fill="#0C58C6"/><polygon points="150,190 150,290 220,250 220,150" fill="url(#gOrange)"/><polygon points="150,108 185,128 185,172 150,192 115,172 115,128" fill="#ffffff" opacity="0.98"/><polygon points="150,125 172,138 172,162 150,175 128,162 128,138" fill="url(#gBlue)"/></g><g fill="#F26522" font-family="Arial, Helvetica, sans-serif" font-weight="700"><text x="300" y="125" font-size="112" letter-spacing="4">CAREER</text><text x="300" y="240" font-size="132" letter-spacing="4">CROX</text></g></svg>